<svg width="77" height="111" viewBox="0 0 77 111" fill="none" xmlns="http://www.w3.org/2000/svg">
<g clip-path="url(#clip0_1472_1305)">
<path d="M60.3856 35.2808C65.2798 34.0667 69.6508 31.9187 72.5823 28.3764C74.933 25.5375 76.3399 21.8124 76.3399 16.9532C76.3399 4.68892 67.5955 0 52.267 0H26.6719V1.5321H26.6744C26.7946 1.5321 26.9147 1.5321 27.0324 1.5346C30.725 1.6097 33.4837 2.90898 33.8367 8.9798V49.4402C15.7019 47.9632 1.56752 36.9731 1.56752 23.6649C1.56752 14.3296 8.52705 6.1309 18.9413 1.55463V0H-0.330078V23.6649C-0.330078 36.132 10.8202 46.6814 26.2188 50.3164H23.0169C20.5085 50.4992 17.9975 50.8722 15.6243 51.453C10.7301 52.6671 6.35908 54.8151 3.42757 58.3574C1.07935 61.1938 -0.330078 64.9189 -0.330078 69.7806C-0.330078 82.0424 8.4144 86.7338 23.7429 86.7338H49.3379V85.2017H49.3354C49.2153 85.2017 49.0951 85.2017 48.9749 85.1992C45.2824 85.1241 42.5236 83.8248 42.1731 77.754V37.2936C60.3055 38.7706 74.4423 49.7632 74.4423 63.0714C74.4423 72.4067 67.4803 80.6054 57.0685 85.1792V86.7338H76.3399V63.0689C76.3399 50.5993 65.1897 40.0524 49.7911 36.4174H52.9929C55.5014 36.2346 58.0123 35.8616 60.3856 35.2808ZM33.8367 77.1707C33.8367 83.3942 31.133 84.8362 27.8861 84.8362H23.9156C14.002 84.8362 8.0514 80.5103 8.0514 70.4139C8.0514 65.0992 9.70867 61.1938 12.515 58.3549C13.4338 57.4236 14.4802 56.605 15.6268 55.9016C20.3157 53.0051 26.767 51.8585 33.7165 51.6658H33.8392V77.1707H33.8367ZM42.2958 35.0655H42.1731V9.56059C42.1731 3.33707 44.8768 1.8951 48.1238 1.8951H49.3379H52.0942C62.0078 1.8951 67.9584 6.22102 67.9584 16.3173C67.9584 21.6321 66.3012 25.5375 63.4948 28.3764C62.5761 29.3076 61.5296 30.1263 60.3831 30.8297C55.6941 33.7262 49.2428 34.8728 42.2933 35.0655H42.2958Z" fill="#B69F61"/>
<path d="M21.8576 98.6499C21.5622 98.3545 21.2067 98.1392 20.7912 98.0065C20.3756 97.8713 20.1603 97.8037 19.6496 97.8037C19.1389 97.8037 18.9261 97.8713 18.5131 98.0065C18.1 98.1417 17.747 98.357 17.4516 98.6499C17.1562 98.9453 16.9284 99.3183 16.7682 99.7689C16.6079 100.22 16.5278 100.768 16.5278 101.409V101.682C16.5278 102.315 16.6079 102.858 16.7682 103.309C16.9284 103.759 17.1562 104.132 17.4516 104.428C17.747 104.723 18.1 104.938 18.5131 105.071C18.9261 105.206 19.1364 105.274 19.6496 105.274C20.1628 105.274 20.3756 105.206 20.7912 105.071C21.2067 104.936 21.5622 104.721 21.8576 104.428C22.153 104.132 22.3808 103.759 22.5411 103.309C22.7013 102.858 22.7814 102.315 22.7814 101.682V101.409C22.7814 100.768 22.7013 100.22 22.5411 99.7689C22.3808 99.3183 22.153 98.9453 21.8576 98.6499Z" fill="#B69F61"/>
<path d="M0 92.8623V110.219H76.67V92.8623H0ZM7.06217 103.767C7.32253 104.288 7.69053 104.671 8.16869 104.914C8.64684 105.157 8.95977 105.279 9.61066 105.279C10.209 105.279 10.7247 105.192 11.1603 105.011C11.5934 104.834 11.9288 104.563 12.1617 104.205C12.397 103.845 12.5121 103.384 12.5121 102.818H13.5285C13.5285 103.582 13.3583 104.21 13.0153 104.706C12.6724 105.202 12.2067 105.567 11.6159 105.805C11.0251 106.043 10.3492 106.163 9.58563 106.163C8.67438 106.163 7.90332 105.993 7.27496 105.655C6.6466 105.317 6.16845 104.804 5.843 104.118C5.51756 103.432 5.35483 102.573 5.35483 101.539C5.35483 99.9946 5.72784 98.838 6.47387 98.0694C7.21989 97.3009 8.26632 96.9179 9.61066 96.9179C10.3817 96.9179 11.0626 97.0405 11.6485 97.2884C12.2343 97.5362 12.6949 97.9042 13.0278 98.3949C13.3608 98.8856 13.5285 99.5089 13.5285 100.262H12.4871C12.4871 99.6992 12.3694 99.236 12.1366 98.8755C11.9038 98.515 11.5708 98.2472 11.1403 98.0694C10.7097 97.8917 10.1965 97.8016 9.59814 97.8016C8.95476 97.8016 8.64684 97.9267 8.16869 98.1796C7.69053 98.4324 7.32253 98.823 7.06217 99.3587C6.80182 99.8944 6.67164 100.588 6.67164 101.449V101.722C6.67164 102.563 6.80182 103.244 7.06217 103.765V103.767ZM23.5598 104.105C23.2093 104.791 22.7011 105.304 22.0377 105.647C21.3743 105.99 20.5782 106.161 19.6494 106.161C18.7206 106.161 17.9371 105.99 17.2737 105.647C16.6102 105.304 16.0995 104.791 15.7441 104.105C15.3886 103.419 15.2108 102.566 15.2108 101.542C15.2108 100.518 15.3886 99.6516 15.7441 98.9707C16.0995 98.2897 16.6102 97.7765 17.2737 97.4336C17.9371 97.0906 18.7281 96.9204 19.6494 96.9204C20.5707 96.9204 21.3743 97.0906 22.0377 97.4336C22.7011 97.7765 23.2093 98.2897 23.5598 98.9707C23.9102 99.6516 24.088 100.51 24.088 101.542C24.088 102.573 23.9127 103.422 23.5598 104.105ZM33.8013 106.005H32.6522L27.9908 99.7042C27.9307 99.6166 27.8356 99.4814 27.7054 99.2936C27.6554 99.221 27.6103 99.1584 27.5653 99.0958V106.005H26.3135V97.0756H27.3149L31.8837 103.247C31.9362 103.307 31.9988 103.389 32.0714 103.494C32.144 103.6 32.2191 103.705 32.2917 103.812C32.3643 103.92 32.4294 104.018 32.4795 104.105H32.5446V97.0756H33.7963V106.005H33.8013ZM43.7199 106.005H42.5708L37.9094 99.7042C37.8493 99.6166 37.7542 99.4814 37.624 99.2936C37.574 99.221 37.5289 99.1584 37.4838 99.0958V106.005H36.2321V97.0756H37.2335L41.8022 103.247C41.8548 103.307 41.9174 103.389 41.99 103.494C42.0626 103.6 42.1377 103.705 42.2103 103.812C42.2829 103.92 42.348 104.018 42.3981 104.105H42.4632V97.0756H43.7149V106.005H43.7199ZM53.0627 106.005H46.1507V97.0756H52.9851V97.9618H47.43V100.981H52.4118V101.88H47.43V105.122H53.0627V106.008V106.005ZM56.5424 103.767C56.8028 104.288 57.1708 104.671 57.6489 104.914C58.1271 105.157 58.44 105.279 59.0909 105.279C59.6892 105.279 60.2049 105.192 60.6405 105.011C61.0736 104.834 61.4091 104.563 61.6419 104.205C61.8772 103.845 61.9924 103.384 61.9924 102.818H63.0088C63.0088 103.582 62.8361 104.21 62.4956 104.706C62.1526 105.202 61.687 105.567 61.0962 105.805C60.5054 106.043 59.8294 106.163 59.0659 106.163C58.1546 106.163 57.3836 105.993 56.7552 105.655C56.1269 105.317 55.6487 104.804 55.3233 104.118C54.9978 103.432 54.8351 102.573 54.8351 101.539C54.8351 99.9946 55.2081 98.838 55.9541 98.0694C56.7001 97.3009 57.7466 96.9179 59.0909 96.9179C59.862 96.9179 60.5429 97.0405 61.1287 97.2884C61.7145 97.5362 62.1751 97.9042 62.5081 98.3949C62.8411 98.8856 63.0088 99.5089 63.0088 100.262H61.9674C61.9674 99.6992 61.8497 99.236 61.6169 98.8755C61.3816 98.515 61.0511 98.2472 60.6205 98.0694C60.1899 97.8917 59.6767 97.8016 59.0784 97.8016C58.435 97.8016 58.1271 97.9267 57.6489 98.1796C57.1708 98.4324 56.8028 98.823 56.5424 99.3587C56.2821 99.8944 56.1519 100.588 56.1519 101.449V101.722C56.1519 102.563 56.2821 103.244 56.5424 103.765V103.767ZM71.3152 97.9743H68.3761V106.005H67.0969V97.9743H63.9326V97.0756H71.3127V97.9743H71.3152Z" fill="#B69F61"/>
</g>
<defs>
<clipPath id="clip0_1472_1305">
<rect width="76.67" height="110.218" fill="white"/>
</clipPath>
</defs>
</svg>
