<svg width="77" height="111" viewBox="0 0 77 111" fill="none" xmlns="http://www.w3.org/2000/svg">
<g clip-path="url(#clip0_1472_1201)">
<path d="M60.7157 35.531C65.6099 34.3082 69.9809 32.145 72.9124 28.5776C75.2632 25.7186 76.6701 21.967 76.6701 17.0734C76.6701 4.72217 67.9256 0 52.5946 0H26.9995V1.54296H27.002C27.1222 1.54296 27.2423 1.54296 27.36 1.54548C31.0526 1.62112 33.8113 2.92961 34.1643 9.04347V49.7908C16.032 48.3033 1.8951 37.2353 1.8951 23.8327C1.8951 14.4312 8.85714 6.17437 19.2714 1.56565V0H0V23.8327C0 36.3882 11.1503 47.0124 26.5489 50.6732H23.347C20.8386 50.8573 18.3276 51.2329 15.9544 51.8178C11.0602 53.0406 6.68917 55.2038 3.75765 58.7712C1.40693 61.6277 0 65.3792 0 70.2754C0 82.6241 8.74449 87.3488 24.073 87.3488H49.6681V85.8058H49.6656C49.5454 85.8058 49.4252 85.8058 49.3051 85.8033C45.6125 85.7277 42.8537 84.4192 42.5033 78.3053V37.558C60.6356 39.0455 74.7725 50.116 74.7725 63.5186C74.7725 72.9201 67.8104 81.177 57.3987 85.7832V87.3488H76.6701V63.5161C76.6701 50.9581 65.5198 40.3364 50.1212 36.6756H53.3231C55.8315 36.4916 58.3425 36.1159 60.7157 35.531ZM34.1668 77.7179C34.1668 83.9856 31.4631 85.4378 28.2162 85.4378H24.2457C14.3321 85.4378 8.38149 81.0812 8.38149 70.9132C8.38149 65.5608 10.0388 61.6277 12.8451 58.7687C13.7639 57.8308 14.8103 57.0064 15.9569 56.298C20.6458 53.381 27.0971 52.2262 34.0467 52.0321H34.1693V77.7179H34.1668ZM42.6259 35.3142H42.5033V9.62839C42.5033 3.36073 45.207 1.90853 48.4539 1.90853H49.6681H52.4244C62.3379 1.90853 68.2886 6.26513 68.2886 16.4331C68.2886 21.7855 66.6313 25.7186 63.825 28.5776C62.9062 29.5155 61.8598 30.3399 60.7132 31.0483C56.0243 33.9653 49.5729 35.12 42.6234 35.3142H42.6259Z" fill="#B69F61"/>
<path d="M40.9413 99.9549C40.8837 99.8011 40.8186 99.6246 40.746 99.4254C40.6734 99.2262 40.6008 99.0271 40.5307 98.8229C40.4882 98.6993 40.4456 98.5884 40.4031 98.48C40.358 98.6161 40.3079 98.7598 40.2478 98.9262C40.1577 99.1784 40.0651 99.4254 39.975 99.6725C39.8848 99.9196 39.8047 100.129 39.7371 100.303L38.4429 103.623H42.3657L41.0715 100.303C41.0414 100.225 40.9989 100.109 40.9413 99.9549Z" fill="#B69F61"/>
<path d="M54.4724 100.113C54.4724 99.7277 54.3998 99.3974 54.2571 99.1276C54.1119 98.8579 53.9016 98.6461 53.6237 98.4973C53.3458 98.3486 53.0003 98.2729 52.5873 98.2729H48.9072V102.158H52.5873C53.1731 102.158 53.6337 101.977 53.9692 101.614C54.3046 101.25 54.4724 100.751 54.4724 100.113Z" fill="#B69F61"/>
<path d="M0 93.6143V111.094H76.6701V93.6143H0ZM20.2603 105.025V105.083C20.2578 105.103 20.2553 105.118 20.2553 105.131C20.2553 105.144 20.2553 105.159 20.2503 105.174C20.2503 105.179 20.2503 105.184 20.2503 105.192L20.2453 105.227C20.2302 105.343 20.2077 105.441 20.1777 105.534C20.1651 105.572 20.1526 105.613 20.1376 105.653C20.1176 105.708 20.0925 105.766 20.065 105.824C20.055 105.845 20.0475 105.862 20.0375 105.882L20.0074 105.94C19.9849 105.978 19.9624 106.018 19.9398 106.056C19.9098 106.104 19.8772 106.155 19.8422 106.203C19.8247 106.228 19.8071 106.253 19.7871 106.276C19.7671 106.301 19.7496 106.324 19.727 106.349L19.7195 106.356C19.687 106.397 19.6544 106.432 19.6244 106.467C19.6019 106.492 19.5793 106.518 19.5543 106.543L19.5443 106.553C19.5218 106.576 19.5017 106.593 19.4842 106.611C19.4642 106.629 19.4442 106.646 19.4241 106.664C19.3841 106.699 19.3415 106.732 19.2964 106.762C19.2514 106.792 19.2063 106.823 19.1613 106.85C18.9485 106.982 18.6956 107.095 18.3677 107.206C18.1924 107.264 18.0072 107.317 17.8144 107.357H17.8019C17.4114 107.448 16.9783 107.493 16.5176 107.493C16.5076 107.493 16.4976 107.493 16.4876 107.493C15.4712 107.491 14.4022 107.282 13.3132 106.876L13.2757 106.861L13.3884 105.716L13.461 105.766C14.0568 106.19 14.6225 106.515 15.1383 106.732C15.5864 106.921 16.0069 107.042 16.39 107.087C16.5427 107.113 16.6879 107.123 16.8231 107.123C17.2562 107.123 17.6392 107.07 17.9621 106.966C18.0372 106.944 18.1123 106.913 18.1849 106.881C18.2024 106.873 18.22 106.866 18.2375 106.855C18.255 106.848 18.2725 106.838 18.2901 106.83C18.3076 106.82 18.3226 106.813 18.3376 106.803C18.3552 106.792 18.3702 106.785 18.3852 106.775C18.4403 106.74 18.6756 106.571 18.7983 106.341C18.8033 106.334 18.8058 106.326 18.8108 106.318C18.8183 106.301 18.8258 106.286 18.8333 106.271C18.8408 106.258 18.8458 106.245 18.8508 106.233C18.8583 106.213 18.8684 106.192 18.8734 106.172C18.8834 106.139 18.8959 106.107 18.9034 106.074C18.9084 106.061 18.9109 106.049 18.9134 106.036C18.9184 106.013 18.9234 105.991 18.9284 105.971L18.936 105.928C18.9435 105.892 18.9485 105.86 18.9535 105.824C18.9535 105.809 18.956 105.799 18.9585 105.787V105.774C18.961 105.759 18.9635 105.746 18.9635 105.731V105.683C18.9685 105.655 18.971 105.628 18.971 105.6V105.572C18.971 105.544 18.971 105.519 18.971 105.492V105.401C18.9259 104.834 18.5905 104.443 18.4478 104.299L18.4152 104.269C18.3852 104.244 18.3552 104.216 18.3251 104.193C18.3076 104.181 18.2926 104.165 18.275 104.153L18.2325 104.12C18.1899 104.09 18.1474 104.057 18.1023 104.027C18.0773 104.009 18.0547 103.994 18.0297 103.979L17.8645 103.875C17.8319 103.855 17.7994 103.835 17.7643 103.815L17.7518 103.807C17.4164 103.611 16.9658 103.369 16.4025 103.079C16.3324 103.043 16.2673 103.008 16.2047 102.973C16.1296 102.933 16.052 102.892 15.9794 102.852C15.9068 102.812 15.8342 102.774 15.7641 102.736L15.7516 102.728C15.704 102.703 15.6489 102.673 15.5964 102.645L15.0556 102.338C14.8754 102.239 14.7127 102.151 14.565 102.065L14.4974 102.027C14.4398 101.995 14.3847 101.962 14.3321 101.929C14.2846 101.899 14.237 101.871 14.1894 101.841C14.1244 101.798 14.0618 101.755 13.9992 101.71L13.9842 101.7C13.9416 101.667 13.8965 101.634 13.8565 101.601C13.8139 101.569 13.7739 101.533 13.7313 101.501C13.6913 101.465 13.6512 101.43 13.6137 101.395L13.501 101.286C13.4835 101.269 13.4635 101.248 13.4459 101.231C13.4159 101.2 13.3858 101.168 13.3583 101.135C13.3558 101.132 13.3508 101.127 13.3483 101.122L13.3408 101.115C13.3408 101.115 13.3308 101.105 13.3208 101.092C13.3032 101.072 13.2782 101.042 13.2457 100.996L13.2381 100.986L13.2256 100.971L13.1555 100.87C13.0729 100.739 13.0028 100.605 12.9503 100.464C12.9427 100.447 12.9377 100.429 12.9302 100.411C12.9252 100.399 12.9227 100.389 12.9177 100.376L12.8952 100.311C12.8827 100.27 12.8726 100.23 12.8626 100.189L12.8551 100.154C12.8376 100.074 12.8251 99.9928 12.8176 99.9147L12.8101 99.8264C12.8101 99.8264 12.8101 99.8038 12.8101 99.7911V99.7332C12.8101 99.718 12.8101 99.7004 12.8101 99.6853L12.8276 99.4785C12.8426 99.3726 12.8651 99.2693 12.8977 99.1684C12.9102 99.1306 12.9227 99.0953 12.9352 99.055C12.9503 99.0171 12.9653 98.9793 12.9828 98.9415C13.0003 98.8987 13.0203 98.8583 13.0429 98.8155L13.0654 98.7726C13.0754 98.7524 13.0879 98.7297 13.1005 98.7096C13.1105 98.6894 13.123 98.6717 13.1355 98.6516C13.168 98.5986 13.2031 98.5457 13.2432 98.4927C13.2532 98.4801 13.2632 98.465 13.2732 98.4524C13.2807 98.4398 13.2907 98.4297 13.3007 98.4171C13.3158 98.3969 13.3308 98.3793 13.3483 98.3591C13.3808 98.3188 13.4159 98.281 13.4509 98.2406L13.521 98.165C13.521 98.165 13.5285 98.1574 13.5336 98.1524L13.5486 98.1373C13.5636 98.1221 13.5786 98.1095 13.5911 98.0969C13.6087 98.0793 13.6312 98.0616 13.6512 98.044C13.6913 98.0112 13.7338 97.9784 13.7789 97.9456C13.8139 97.9204 13.8515 97.8952 13.889 97.8725C14.1093 97.7339 14.3697 97.6154 14.7102 97.5019C14.8879 97.4414 15.0732 97.391 15.2634 97.3506H15.2709L15.2784 97.3481C15.6765 97.2624 16.1196 97.217 16.5852 97.2145H16.6078C17.6116 97.2145 18.6731 97.4011 19.7671 97.7717L19.8071 97.7843L19.6845 99.0247L19.6119 98.9743C18.9935 98.5356 18.3777 98.1902 17.7869 97.9456C17.3863 97.7792 17.0158 97.6708 16.6854 97.6179C16.5352 97.5952 16.39 97.5826 16.2523 97.5826C15.8192 97.5826 15.4362 97.6355 15.1132 97.7389C15.0356 97.7641 14.9605 97.7944 14.8904 97.8246C14.8729 97.8322 14.8554 97.8423 14.8378 97.8498C14.8228 97.8574 14.8078 97.865 14.7953 97.8725C14.7903 97.875 14.7853 97.8776 14.7803 97.8801C14.7677 97.8877 14.7527 97.8952 14.7402 97.9028C14.7227 97.9129 14.7102 97.9204 14.6976 97.928L14.6876 97.9356C14.6175 97.9835 14.3972 98.1448 14.2771 98.3667L14.2646 98.3894C14.257 98.4045 14.2495 98.4221 14.242 98.4373C14.237 98.4474 14.232 98.4574 14.2295 98.4675C14.217 98.4953 14.2095 98.5154 14.202 98.5381C14.192 98.5709 14.1794 98.6037 14.1719 98.6339L14.1619 98.6743C14.1569 98.6919 14.1519 98.7121 14.1494 98.7323L14.1394 98.7852C14.1319 98.8205 14.1269 98.8533 14.1244 98.8886C14.1244 98.9037 14.1219 98.9138 14.1194 98.9264V98.939C14.1168 98.9516 14.1143 98.9667 14.1143 98.9793V99.0272C14.1093 99.055 14.1068 99.0827 14.1068 99.1104V99.1382C14.1068 99.1609 14.1068 99.181 14.1068 99.2037L14.1118 99.3121C14.1544 99.8945 14.5024 100.288 14.6501 100.429L14.6626 100.442C14.6926 100.469 14.7202 100.495 14.7527 100.52C14.7677 100.532 14.7828 100.545 14.7978 100.558C14.8328 100.585 14.8679 100.613 14.9054 100.638C14.938 100.661 14.9705 100.684 15.0056 100.706L15.0657 100.747C15.1207 100.782 15.1708 100.812 15.2184 100.842C15.2484 100.863 15.2809 100.88 15.311 100.898L15.3335 100.911C15.3711 100.933 15.4086 100.956 15.4512 100.979L15.5964 101.059C15.8893 101.223 16.2498 101.415 16.6754 101.632L17.1185 101.866C17.1635 101.889 17.2061 101.914 17.2511 101.937L17.3162 101.972C17.4039 102.02 17.489 102.068 17.5741 102.113L17.7443 102.209C17.7869 102.234 17.8294 102.257 17.872 102.282L18.1799 102.454C18.3001 102.519 18.4102 102.582 18.5154 102.64L18.583 102.678C18.6406 102.711 18.6956 102.743 18.7482 102.776C18.7958 102.806 18.8433 102.834 18.8909 102.864C18.961 102.91 19.0286 102.958 19.0937 103.006C19.1387 103.038 19.1813 103.071 19.2239 103.104C19.2664 103.137 19.3065 103.172 19.3465 103.205C19.3866 103.24 19.4266 103.275 19.4642 103.311C19.4842 103.328 19.5017 103.346 19.5218 103.364C19.5593 103.399 19.5969 103.437 19.6319 103.475C19.667 103.512 19.702 103.55 19.7371 103.588L19.7496 103.603C19.7496 103.603 19.7671 103.621 19.7771 103.633C19.7921 103.651 19.8122 103.676 19.8322 103.704L19.9198 103.83C19.9624 103.896 19.9949 103.956 20.0275 104.017L20.035 104.029C20.0425 104.042 20.0475 104.054 20.055 104.067L20.0975 104.158C20.1076 104.183 20.1201 104.211 20.1301 104.239C20.1376 104.256 20.1426 104.274 20.1501 104.291L20.1852 104.392C20.1977 104.433 20.2077 104.473 20.2177 104.513L20.2252 104.546C20.2277 104.559 20.2302 104.574 20.2327 104.586C20.2377 104.609 20.2402 104.632 20.2453 104.657C20.2528 104.7 20.2578 104.743 20.2628 104.786L20.2703 104.967C20.2703 104.985 20.2703 105 20.2703 105.018L20.2603 105.025ZM33.1104 107.327H31.7235V101.137C31.7235 100.895 31.7285 100.623 31.7385 100.318C31.7485 100.013 31.756 99.7155 31.761 99.4256C31.761 99.3752 31.761 99.3298 31.761 99.2844C31.6985 99.4785 31.6384 99.6752 31.5783 99.8743C31.5157 100.076 31.4556 100.265 31.398 100.439L28.7494 107.324H27.8281L25.1945 100.439C25.137 100.285 25.0794 100.116 25.0218 99.9323C24.9642 99.7483 24.9066 99.5542 24.8491 99.3525C24.8491 99.3474 24.8466 99.3424 24.8441 99.3373C24.8441 99.3852 24.8441 99.4331 24.8466 99.4836C24.8516 99.7735 24.8566 100.063 24.8616 100.353C24.8666 100.643 24.8691 100.903 24.8691 101.135V107.324H23.5097V97.3784H25.2371L27.8131 104.264C27.8707 104.428 27.9283 104.604 27.9859 104.793C28.0434 104.982 28.0985 105.161 28.1511 105.33C28.2037 105.499 28.2437 105.643 28.2738 105.759H28.3614C28.3989 105.623 28.4465 105.464 28.5066 105.28C28.5642 105.096 28.6192 104.914 28.6718 104.735C28.7244 104.556 28.7744 104.4 28.822 104.264L31.398 97.3784H33.1104V107.324V107.327ZM43.7925 107.327L42.7561 104.702H38.0547L37.0333 107.327H35.6163L39.5467 97.3809H41.0738L45.0167 107.327H43.7925ZM54.7025 107.327L52.7298 103.24H48.907V107.327H47.5201V97.3809H52.7022C53.3556 97.3809 53.8939 97.5044 54.322 97.7515C54.75 97.9986 55.0705 98.3339 55.2858 98.76C55.5011 99.1861 55.6087 99.6676 55.6087 100.21C55.6087 100.916 55.4485 101.513 55.1256 102C54.8026 102.489 54.3795 102.834 53.8513 103.036L55.9517 107.327H54.7H54.7025ZM65.8302 98.3818H62.5532V107.327H61.1663V98.3818H57.669V97.3809H65.8302V98.3818Z" fill="#B69F61"/>
</g>
<defs>
<clipPath id="clip0_1472_1201">
<rect width="76.6701" height="111" fill="white"/>
</clipPath>
</defs>
</svg>
