<svg width="116" height="34" viewBox="0 0 116 34" fill="none" xmlns="http://www.w3.org/2000/svg">
<path d="M23.865 13.8308C25.7835 13.3549 27.4969 12.5129 28.6461 11.1243C29.5675 10.0115 30.119 8.55127 30.119 6.64652C30.119 1.839 26.6913 0.000976562 20.6816 0.000976562H10.6485V0.601548H10.6495C10.6966 0.601548 10.7437 0.601548 10.7899 0.602529C12.2373 0.631969 13.3187 1.14128 13.4571 3.52099V19.3812C6.34935 18.8022 0.807805 14.4942 0.807805 9.27745C0.807805 5.61809 3.53687 2.40424 7.61919 0.61038V0.000976562H0.0649414V9.27745C0.0649414 14.1645 4.43577 18.2998 10.4719 19.7246H9.21679C8.2335 19.7963 7.24923 19.9425 6.31893 20.1702C4.40044 20.6461 2.68704 21.4881 1.53791 22.8767C0.616447 23.9895 0.0649414 25.4497 0.0649414 27.3545C0.0649414 32.162 3.49271 34 9.50137 34H19.5344V33.3994H19.5335C19.4864 33.3994 19.4393 33.3994 19.3922 33.3984C17.9447 33.369 16.8633 32.8597 16.7259 30.48V14.6198C23.8336 15.1988 29.3752 19.5078 29.3752 24.7245C29.3752 28.3839 26.6461 31.5977 22.5648 33.3906V34H30.119V24.7235C30.119 19.8355 25.7482 15.7012 19.7121 14.2763H20.9672C21.9505 14.2047 22.9347 14.0585 23.865 13.8308ZM13.4581 30.2513C13.4581 32.6909 12.3982 33.2562 11.1255 33.2562H9.56908C5.68303 33.2562 3.35042 31.5604 3.35042 27.6027C3.35042 25.5194 4.00006 23.9885 5.10012 22.8757C5.46027 22.5106 5.87047 22.1897 6.31991 21.914C8.15794 20.7786 10.6868 20.3291 13.411 20.2536H13.4591V30.2513H13.4581ZM16.774 13.7464H16.7259V3.74866C16.7259 1.30908 17.7857 0.74384 19.0585 0.74384H19.5344H20.6149C24.5009 0.74384 26.8336 2.43957 26.8336 6.39726C26.8336 8.48061 26.1839 10.0115 25.0838 11.1243C24.7237 11.4894 24.3135 11.8103 23.8641 12.086C22.026 13.2214 19.4972 13.6708 16.773 13.7464H16.774Z" fill="black"/>
<path d="M65.1711 31.1591C64.2388 33.2356 63.3154 33.3415 60.7826 33.3415H59.079C58.0937 33.3415 57.6149 32.842 57.6149 31.8136V26.9011H60.6756C62.1672 26.9011 62.4999 27.2082 62.7177 27.9433L62.7374 28.008H63.2781V25.1455H62.7599L62.7393 25.2083C62.4999 25.9453 62.1604 26.2534 60.6746 26.2534H57.6139V21.2555C57.6139 19.7502 58.3165 19.5578 58.9289 19.5578H60.2487C62.8718 19.5578 63.7442 19.6569 64.6578 21.7393L64.6814 21.7933H65.2133V18.9308H53.771V19.4725H53.8613C54.8573 19.4725 55.4746 19.8061 55.4746 21.4685V31.4957C55.4746 33.3003 54.7111 33.4495 53.8613 33.4495C53.5904 33.4505 53.5443 33.4514 53.5257 33.4514H53.4491C52.3186 33.4357 51.4629 32.3033 50.4728 30.9913C49.4816 29.6782 48.3688 28.2063 46.7496 27.6626C50.9487 27.1808 51.8496 24.8933 51.8496 23.0209C51.8496 20.2291 50.0145 18.9288 46.0754 18.9288H39.9392V19.4705H40.0295C41.0255 19.4705 41.6428 19.8041 41.6428 21.4665V31.4937C41.6428 33.1276 41.0511 33.4475 40.0295 33.4475H39.9392V33.9892H45.5063V33.4475H45.416C44.5887 33.4475 43.7811 33.2954 43.7811 31.4721V27.8795C43.9028 27.8795 44.0304 27.8834 44.2119 27.9001C45.8507 28.113 46.9478 29.6508 48.0096 31.1385C49.04 32.583 50.0125 33.947 51.4089 33.9902C51.6651 33.9971 51.9771 34 52.2951 34C52.6768 34 53.0654 33.9961 53.3696 33.9941C53.5767 33.9922 53.7494 33.9912 53.8632 33.9912H65.7265V31.1071H65.1946L65.1711 31.16V31.1591ZM43.7821 27.2073V21.2752C43.7821 19.7512 44.4847 19.5559 45.0971 19.5559H46.0342C48.461 19.5559 49.6906 20.6716 49.6906 22.8718C49.6906 25.6646 47.7574 27.0836 43.7821 27.2073Z" fill="black"/>
<path d="M115.409 31.1159L115.385 31.1689C114.453 33.2454 113.53 33.3513 110.997 33.3513H109.293C108.308 33.3513 107.829 32.8519 107.829 31.8234V26.9109H110.89C112.382 26.9109 112.714 27.2181 112.932 27.9531L112.952 28.0178H113.492V25.1553H112.974L112.954 25.2171C112.714 25.9541 112.375 26.2613 110.889 26.2613H107.828V21.2634C107.828 19.758 108.531 19.5647 109.143 19.5647H110.463C113.085 19.5647 113.959 19.6638 114.872 21.7462L114.896 21.8002H115.428V18.9376H99.4929V19.4793H99.5832C100.541 19.4793 101.047 19.8601 101.047 20.5814C101.047 20.8365 100.982 21.1309 100.84 21.5067L97.0268 31.4878L93.1525 21.6775C92.9563 21.1613 92.8601 20.76 92.8601 20.4528C92.8601 19.6471 93.4823 19.4783 94.0043 19.4783H94.0946V18.9367H78.0951V19.4783H78.1853C79.1431 19.4783 79.6495 19.8591 79.6495 20.5804C79.6495 20.8355 79.5837 21.1299 79.4424 21.5058L75.629 31.4868L71.7547 21.6765C71.5585 21.1603 71.4623 20.759 71.4623 20.4518C71.4623 19.6461 72.0844 19.4774 72.6065 19.4774H72.6968V18.9357H66.96V19.4774H67.0502C67.482 19.4774 68.4918 19.4774 69.3505 21.6137L74.2836 33.9971H75.3758L80.1843 21.4852C80.5435 20.5696 81.2078 19.4774 82.3354 19.4774H82.6769C83.671 19.4774 84.3324 19.8169 84.3324 21.4734V31.5006C84.3324 33.1276 83.6984 33.4544 82.6769 33.4544H82.5866V33.9961H88.1959V33.4544H88.1056C87.2783 33.4544 86.4717 33.3033 86.4717 31.5006V21.4734C86.4717 19.8405 87.0977 19.499 88.1056 19.4774H88.4461C88.8779 19.4774 89.8877 19.4774 90.7463 21.6137L95.6785 33.9971H96.7707L101.579 21.4852C101.938 20.5696 102.603 19.4774 103.73 19.4774H104.072C105.068 19.4774 105.685 19.811 105.685 21.4734V31.5006C105.685 33.3052 104.922 33.4544 104.072 33.4544H103.981V33.9961H115.935V31.112H115.403L115.409 31.1159Z" fill="black"/>
<path d="M65.1711 12.2322C64.2388 14.3087 63.3154 14.4147 60.7826 14.4147H59.079C58.0937 14.4147 57.6149 13.9152 57.6149 12.8868V7.97426H60.6756C62.1672 7.97426 62.4999 8.28141 62.7178 9.0174L62.7374 9.08217H63.2781V6.21964H62.7599L62.7393 6.28147C62.4999 7.01844 62.1604 7.32658 60.6746 7.32658H57.6139V2.32672C57.6139 0.82137 58.3165 0.628049 58.9289 0.628049H60.2487C62.8718 0.628049 63.7442 0.727163 64.6578 2.80954L64.6814 2.86351H65.2133V0.000981326H53.771V0.542673H53.8613C54.8573 0.542673 55.4746 0.876324 55.4746 2.53869V12.5659C55.4746 14.3705 54.7111 14.5197 53.8613 14.5197C53.5836 14.5207 53.5414 14.5217 53.5247 14.5217H53.4491C52.3186 14.506 51.4629 13.3735 50.4718 12.0615C49.4806 10.7485 48.3678 9.27647 46.7486 8.73282C50.9487 8.25099 51.8486 5.9645 51.8486 4.09213C51.8486 1.30026 50.0135 0 46.0745 0H39.9382V0.541692H40.0285C41.0246 0.541692 41.6418 0.875343 41.6418 2.53771V12.5649C41.6418 14.1988 41.0501 14.5187 40.0285 14.5187H39.9382V15.0604H45.5053V14.5187H45.415C44.5878 14.5187 43.7801 14.3666 43.7801 12.5433V8.95067C43.9018 8.95067 44.0294 8.9546 44.2109 8.97128C45.8497 9.18423 46.9469 10.722 48.0087 12.2097C49.039 13.6542 50.0115 15.0182 51.408 15.0614C51.6641 15.0683 51.9762 15.0712 52.2941 15.0712C52.6758 15.0712 53.0644 15.0673 53.3687 15.0653C53.5757 15.0634 53.7484 15.0624 53.8623 15.0624H65.7255V12.1783H65.1936L65.1701 12.2312L65.1711 12.2322ZM43.7821 8.28043V2.34831C43.7821 0.824314 44.4847 0.62903 45.0971 0.62903H46.0342C48.461 0.62903 49.6906 1.7448 49.6906 3.94493C49.6906 6.73778 47.7574 8.15678 43.7821 8.28043Z" fill="black"/>
<path d="M67.5379 2.43074C68.3456 0.815477 69.2572 0.653558 71.6252 0.649633V12.5884C71.6252 14.1978 71.0079 14.5207 70.0119 14.5207H69.9216V15.0624H80.8594V14.5207H80.7692C79.9763 14.5207 79.5396 14.2047 79.5396 13.6316C79.5396 13.3254 79.623 12.9721 79.7888 12.5786L80.1068 11.7631H87.0075L87.3048 12.5943C87.4333 13.0016 87.5138 13.3068 87.5138 13.5678C87.5138 14.1468 87.0565 14.5207 86.348 14.5207H86.2577V15.0624H111.694V12.1783H111.139L111.116 12.2332C110.273 14.1998 109.447 14.4137 106.557 14.4137H104.79C103.615 14.4137 103.368 13.6061 103.368 12.928V2.51808C103.368 0.879263 104.022 0.542668 105.003 0.542668H105.093V0.000976562H99.5262V0.542668H99.6165C100.613 0.542668 101.23 0.876319 101.23 2.53869V12.4167C101.23 14.1841 100.663 14.5197 99.6165 14.5197H97.8315C97.0042 14.5197 96.1966 14.3686 96.1966 12.5659V2.53967C96.1966 0.906741 96.8227 0.565239 97.8334 0.54365L97.9218 0.541687V0.000976562H92.3125V0.542668H92.4028C93.3969 0.542668 94.0583 0.882207 94.0583 2.53869V12.5659C94.0583 14.1929 93.4243 14.5197 92.4028 14.5197H91.8405C91.3763 14.5197 90.4097 14.5197 89.4981 12.0664L85.032 0.000976562H83.9506L79.1529 12.2146C78.5268 13.7876 77.6809 14.5207 76.4906 14.5207H75.3778C74.3955 14.5207 73.786 14.1978 73.786 12.5884V0.628044C76.1216 0.631969 77.0254 0.796832 77.8733 2.43172L77.8988 2.48079H78.4267V0.000976562H66.9629V2.48079H67.5134L67.5379 2.43074ZM83.7455 2.3748L86.7955 11.1145H80.3688L83.7455 2.3748Z" fill="black"/>
</svg>
