<?xml version="1.0" standalone="no"?>
<!DOCTYPE svg PUBLIC "-//W3C//DTD SVG 20010904//EN"
 "http://www.w3.org/TR/2001/REC-SVG-20010904/DTD/svg10.dtd">
<svg version="1.0" xmlns="http://www.w3.org/2000/svg"
 width="92.000000pt" height="63.000000pt" viewBox="0 0 92.000000 63.000000"
 preserveAspectRatio="xMidYMid meet">

<g transform="translate(0.000000,63.000000) scale(0.100000,-0.100000)"
fill="#000000" stroke="none">
<path d="M162 524 c-21 -15 -22 -20 -22 -213 0 -179 2 -199 18 -214 16 -15 53
-17 310 -17 279 0 293 1 312 20 19 19 20 33 20 210 0 177 -1 191 -20 210 -19
19 -33 20 -308 20 -244 0 -291 -2 -310 -16z m568 -28 c-71 -64 -251 -206 -263
-206 -8 0 -74 50 -147 110 l-132 110 278 0 c234 0 276 -2 264 -14z m38 -276
l-3 -90 -108 87 c-90 71 -106 88 -95 99 7 7 56 49 108 92 l95 80 3 -89 c1 -49
1 -129 0 -179z m-486 174 c56 -48 102 -89 101 -91 -1 -2 -50 -42 -108 -89
l-105 -85 0 176 c0 96 2 175 4 175 2 0 51 -39 108 -86z m162 -125 c19 -9 32
-9 55 1 29 11 33 9 136 -74 l107 -86 -271 0 c-149 0 -271 2 -271 4 0 7 203
166 212 166 4 0 18 -5 32 -11z"/>
</g>
</svg>
