<svg width="146" height="34" viewBox="0 0 146 34" fill="none" xmlns="http://www.w3.org/2000/svg">
<path d="M38.865 13.8308C40.7835 13.3549 42.4969 12.5129 43.6461 11.1243C44.5675 10.0115 45.119 8.55127 45.119 6.64652C45.119 1.839 41.6913 0.000976562 35.6816 0.000976562H25.6485V0.601548H25.6495C25.6966 0.601548 25.7437 0.601548 25.7899 0.602529C27.2373 0.631969 28.3187 1.14128 28.4571 3.52099V19.3812C21.3494 18.8022 15.8078 14.4942 15.8078 9.27745C15.8078 5.61809 18.5369 2.40424 22.6192 0.61038V0.000976562H15.0649V9.27745C15.0649 14.1645 19.4358 18.2998 25.4719 19.7246H24.2168C23.2335 19.7963 22.2492 19.9425 21.3189 20.1702C19.4004 20.6461 17.687 21.4881 16.5379 22.8767C15.6164 23.9895 15.0649 25.4497 15.0649 27.3545C15.0649 32.162 18.4927 34 24.5014 34H34.5344V33.3994H34.5335C34.4864 33.3994 34.4393 33.3994 34.3922 33.3984C32.9447 33.369 31.8633 32.8597 31.7259 30.48V14.6198C38.8336 15.1988 44.3752 19.5078 44.3752 24.7245C44.3752 28.3839 41.6461 31.5977 37.5648 33.3906V34H45.119V24.7235C45.119 19.8355 40.7482 15.7012 34.7121 14.2763H35.9672C36.9505 14.2047 37.9347 14.0585 38.865 13.8308ZM28.4581 30.2513C28.4581 32.6909 27.3982 33.2562 26.1255 33.2562H24.5691C20.683 33.2562 18.3504 31.5604 18.3504 27.6027C18.3504 25.5194 19.0001 23.9885 20.1001 22.8757C20.4603 22.5106 20.8705 22.1897 21.3199 21.914C23.1579 20.7786 25.6868 20.3291 28.411 20.2536H28.4591V30.2513H28.4581ZM31.774 13.7464H31.7259V3.74866C31.7259 1.30908 32.7857 0.74384 34.0585 0.74384H34.5344H35.6149C39.5009 0.74384 41.8336 2.43957 41.8336 6.39726C41.8336 8.48061 41.1839 10.0115 40.0838 11.1243C39.7237 11.4894 39.3135 11.8103 38.8641 12.086C37.026 13.2214 34.4972 13.6708 31.773 13.7464H31.774Z" fill="black"/>
<path d="M80.1711 31.1591C79.2388 33.2356 78.3154 33.3415 75.7826 33.3415H74.079C73.0937 33.3415 72.6149 32.842 72.6149 31.8136V26.9011H75.6756C77.1672 26.9011 77.4999 27.2082 77.7177 27.9433L77.7374 28.008H78.2781V25.1455H77.7599L77.7393 25.2083C77.4999 25.9453 77.1604 26.2534 75.6746 26.2534H72.6139V21.2555C72.6139 19.7502 73.3165 19.5578 73.9289 19.5578H75.2487C77.8718 19.5578 78.7442 19.6569 79.6578 21.7393L79.6814 21.7933H80.2133V18.9308H68.771V19.4725H68.8613C69.8573 19.4725 70.4746 19.8061 70.4746 21.4685V31.4957C70.4746 33.3003 69.7111 33.4495 68.8613 33.4495C68.5904 33.4505 68.5443 33.4514 68.5257 33.4514H68.4491C67.3186 33.4357 66.4629 32.3033 65.4728 30.9913C64.4816 29.6782 63.3688 28.2063 61.7496 27.6626C65.9487 27.1808 66.8496 24.8933 66.8496 23.0209C66.8496 20.2291 65.0145 18.9288 61.0754 18.9288H54.9392V19.4705H55.0295C56.0255 19.4705 56.6428 19.8041 56.6428 21.4665V31.4937C56.6428 33.1276 56.0511 33.4475 55.0295 33.4475H54.9392V33.9892H60.5063V33.4475H60.416C59.5887 33.4475 58.7811 33.2954 58.7811 31.4721V27.8795C58.9028 27.8795 59.0304 27.8834 59.2119 27.9001C60.8507 28.113 61.9478 29.6508 63.0096 31.1385C64.04 32.583 65.0125 33.947 66.4089 33.9902C66.6651 33.9971 66.9771 34 67.2951 34C67.6768 34 68.0654 33.9961 68.3696 33.9941C68.5767 33.9922 68.7494 33.9912 68.8632 33.9912H80.7265V31.1071H80.1946L80.1711 31.16V31.1591ZM58.7821 27.2073V21.2752C58.7821 19.7512 59.4847 19.5559 60.0971 19.5559H61.0342C63.461 19.5559 64.6906 20.6716 64.6906 22.8718C64.6906 25.6646 62.7574 27.0836 58.7821 27.2073Z" fill="black"/>
<path d="M130.409 31.1159L130.385 31.1689C129.453 33.2454 128.53 33.3513 125.997 33.3513H124.293C123.308 33.3513 122.829 32.8519 122.829 31.8234V26.9109H125.89C127.382 26.9109 127.714 27.2181 127.932 27.9531L127.952 28.0178H128.492V25.1553H127.974L127.954 25.2171C127.714 25.9541 127.375 26.2613 125.889 26.2613H122.828V21.2634C122.828 19.758 123.531 19.5647 124.143 19.5647H125.463C128.085 19.5647 128.959 19.6638 129.872 21.7462L129.896 21.8002H130.428V18.9376H114.493V19.4793H114.583C115.541 19.4793 116.047 19.8601 116.047 20.5814C116.047 20.8365 115.982 21.1309 115.84 21.5067L112.027 31.4878L108.153 21.6775C107.956 21.1613 107.86 20.76 107.86 20.4528C107.86 19.6471 108.482 19.4783 109.004 19.4783H109.095V18.9367H93.0951V19.4783H93.1853C94.1431 19.4783 94.6495 19.8591 94.6495 20.5804C94.6495 20.8355 94.5837 21.1299 94.4424 21.5058L90.629 31.4868L86.7547 21.6765C86.5585 21.1603 86.4623 20.759 86.4623 20.4518C86.4623 19.6461 87.0844 19.4774 87.6065 19.4774H87.6968V18.9357H81.96V19.4774H82.0502C82.482 19.4774 83.4918 19.4774 84.3505 21.6137L89.2836 33.9971H90.3758L95.1843 21.4852C95.5435 20.5696 96.2078 19.4774 97.3354 19.4774H97.6769C98.671 19.4774 99.3324 19.8169 99.3324 21.4734V31.5006C99.3324 33.1276 98.6984 33.4544 97.6769 33.4544H97.5866V33.9961H103.196V33.4544H103.106C102.278 33.4544 101.472 33.3033 101.472 31.5006V21.4734C101.472 19.8405 102.098 19.499 103.106 19.4774H103.446C103.878 19.4774 104.888 19.4774 105.746 21.6137L110.678 33.9971H111.771L116.579 21.4852C116.938 20.5696 117.603 19.4774 118.73 19.4774H119.072C120.068 19.4774 120.685 19.811 120.685 21.4734V31.5006C120.685 33.3052 119.922 33.4544 119.072 33.4544H118.981V33.9961H130.935V31.112H130.403L130.409 31.1159Z" fill="black"/>
<path d="M80.1711 12.2322C79.2388 14.3087 78.3154 14.4147 75.7826 14.4147H74.079C73.0937 14.4147 72.6149 13.9152 72.6149 12.8868V7.97426H75.6756C77.1672 7.97426 77.4999 8.28141 77.7178 9.0174L77.7374 9.08217H78.2781V6.21964H77.7599L77.7393 6.28147C77.4999 7.01844 77.1604 7.32658 75.6746 7.32658H72.6139V2.32672C72.6139 0.82137 73.3165 0.628049 73.9289 0.628049H75.2487C77.8718 0.628049 78.7442 0.727163 79.6578 2.80954L79.6814 2.86351H80.2133V0.000981326H68.771V0.542673H68.8613C69.8573 0.542673 70.4746 0.876324 70.4746 2.53869V12.5659C70.4746 14.3705 69.7111 14.5197 68.8613 14.5197C68.5836 14.5207 68.5414 14.5217 68.5247 14.5217H68.4491C67.3186 14.506 66.4629 13.3735 65.4718 12.0615C64.4806 10.7485 63.3678 9.27647 61.7486 8.73282C65.9487 8.25099 66.8486 5.9645 66.8486 4.09213C66.8486 1.30026 65.0135 0 61.0745 0H54.9382V0.541692H55.0285C56.0246 0.541692 56.6418 0.875343 56.6418 2.53771V12.5649C56.6418 14.1988 56.0501 14.5187 55.0285 14.5187H54.9382V15.0604H60.5053V14.5187H60.415C59.5878 14.5187 58.7801 14.3666 58.7801 12.5433V8.95067C58.9018 8.95067 59.0294 8.9546 59.2109 8.97128C60.8497 9.18423 61.9469 10.722 63.0087 12.2097C64.039 13.6542 65.0115 15.0182 66.408 15.0614C66.6641 15.0683 66.9762 15.0712 67.2941 15.0712C67.6758 15.0712 68.0644 15.0673 68.3687 15.0653C68.5757 15.0634 68.7484 15.0624 68.8623 15.0624H80.7255V12.1783H80.1936L80.1701 12.2312L80.1711 12.2322ZM58.7821 8.28043V2.34831C58.7821 0.824314 59.4847 0.62903 60.0971 0.62903H61.0342C63.461 0.62903 64.6906 1.7448 64.6906 3.94493C64.6906 6.73778 62.7574 8.15678 58.7821 8.28043Z" fill="black"/>
<path d="M82.5379 2.43074C83.3456 0.815477 84.2572 0.653558 86.6252 0.649633V12.5884C86.6252 14.1978 86.0079 14.5207 85.0119 14.5207H84.9216V15.0624H95.8594V14.5207H95.7692C94.9763 14.5207 94.5396 14.2047 94.5396 13.6316C94.5396 13.3254 94.623 12.9721 94.7888 12.5786L95.1068 11.7631H102.007L102.305 12.5943C102.433 13.0016 102.514 13.3068 102.514 13.5678C102.514 14.1468 102.057 14.5207 101.348 14.5207H101.258V15.0624H126.694V12.1783H126.139L126.116 12.2332C125.273 14.1998 124.447 14.4137 121.557 14.4137H119.79C118.615 14.4137 118.368 13.6061 118.368 12.928V2.51808C118.368 0.879263 119.022 0.542668 120.003 0.542668H120.093V0.000976562H114.526V0.542668H114.617C115.613 0.542668 116.23 0.876319 116.23 2.53869V12.4167C116.23 14.1841 115.663 14.5197 114.617 14.5197H112.831C112.004 14.5197 111.197 14.3686 111.197 12.5659V2.53967C111.197 0.906741 111.823 0.565239 112.833 0.54365L112.922 0.541687V0.000976562H107.313V0.542668H107.403C108.397 0.542668 109.058 0.882207 109.058 2.53869V12.5659C109.058 14.1929 108.424 14.5197 107.403 14.5197H106.84C106.376 14.5197 105.41 14.5197 104.498 12.0664L100.032 0.000976562H98.9506L94.1529 12.2146C93.5268 13.7876 92.6809 14.5207 91.4906 14.5207H90.3778C89.3955 14.5207 88.786 14.1978 88.786 12.5884V0.628044C91.1216 0.631969 92.0254 0.796832 92.8733 2.43172L92.8988 2.48079H93.4267V0.000976562H81.9629V2.48079H82.5134L82.5379 2.43074ZM98.7455 2.3748L101.795 11.1145H95.3688L98.7455 2.3748Z" fill="black"/>
</svg>
