<svg width="77" height="87" viewBox="0 0 77 87" fill="none" xmlns="http://www.w3.org/2000/svg">
<path d="M60.3856 35.2808C65.2798 34.0667 69.6508 31.9187 72.5823 28.3764C74.933 25.5375 76.3399 21.8124 76.3399 16.9532C76.3399 4.68892 67.5955 0 52.267 0H26.6719V1.5321H26.6744C26.7946 1.5321 26.9147 1.5321 27.0324 1.5346C30.725 1.6097 33.4837 2.90898 33.8367 8.9798V49.4402C15.7019 47.9632 1.56752 36.9731 1.56752 23.6649C1.56752 14.3296 8.52705 6.1309 18.9413 1.55463V0H-0.330078V23.6649C-0.330078 36.132 10.8202 46.6814 26.2188 50.3164H23.0169C20.5085 50.4992 17.9975 50.8722 15.6243 51.453C10.7301 52.6671 6.35908 54.8151 3.42757 58.3574C1.07935 61.1938 -0.330078 64.9189 -0.330078 69.7806C-0.330078 82.0424 8.4144 86.7338 23.7429 86.7338H49.3379V85.2017H49.3354C49.2153 85.2017 49.0951 85.2017 48.9749 85.1992C45.2824 85.1241 42.5236 83.8248 42.1731 77.754V37.2936C60.3055 38.7706 74.4423 49.7632 74.4423 63.0714C74.4423 72.4067 67.4803 80.6054 57.0685 85.1792V86.7338H76.3399V63.0689C76.3399 50.5993 65.1897 40.0524 49.7911 36.4174H52.9929C55.5014 36.2346 58.0123 35.8616 60.3856 35.2808ZM33.8367 77.1707C33.8367 83.3942 31.133 84.8362 27.8861 84.8362H23.9156C14.002 84.8362 8.0514 80.5103 8.0514 70.4139C8.0514 65.0992 9.70867 61.1938 12.515 58.3549C13.4338 57.4236 14.4802 56.605 15.6268 55.9016C20.3157 53.0051 26.767 51.8585 33.7165 51.6658H33.8392V77.1707H33.8367ZM42.2958 35.0655H42.1731V9.56059C42.1731 3.33707 44.8768 1.8951 48.1238 1.8951H49.3379H52.0942C62.0078 1.8951 67.9584 6.22102 67.9584 16.3173C67.9584 21.6321 66.3012 25.5375 63.4948 28.3764C62.5761 29.3076 61.5296 30.1263 60.3831 30.8297C55.6941 33.7262 49.2428 34.8728 42.2933 35.0655H42.2958Z" fill="#B69F61"/>
</svg>
