<?xml version="1.0" standalone="no"?>
<!DOCTYPE svg PUBLIC "-//W3C//DTD SVG 20010904//EN"
 "http://www.w3.org/TR/2001/REC-SVG-20010904/DTD/svg10.dtd">
<svg version="1.0" xmlns="http://www.w3.org/2000/svg"
 width="78.000000pt" height="75.000000pt" viewBox="0 0 78.000000 75.000000"
 preserveAspectRatio="xMidYMid meet">

<g transform="translate(0.000000,75.000000) scale(0.100000,-0.100000)"
fill="#000000" stroke="none">
<path d="M260 627 c-52 -17 -114 -84 -128 -139 -7 -27 -12 -121 -12 -218 l0
-171 68 3 67 3 5 175 c3 96 9 181 13 188 5 6 21 19 38 27 18 10 29 23 29 36 0
25 16 57 43 87 l20 22 -54 -1 c-30 -1 -70 -6 -89 -12z"/>
<path d="M450 627 c-41 -14 -80 -68 -80 -111 0 -40 33 -94 66 -106 38 -15 97
-12 122 6 51 36 66 107 32 161 -30 50 -82 69 -140 50z"/>
<path d="M376 368 c-24 -38 -47 -119 -55 -191 -4 -37 -5 -70 -2 -72 2 -3 83
-5 179 -5 l175 0 -6 73 c-5 75 -37 181 -61 205 -11 12 -18 11 -44 -2 -39 -20
-98 -20 -136 -1 -36 19 -33 19 -50 -7z"/>
</g>
</svg>
