<svg width="275" height="106" viewBox="0 0 275 106" fill="none" xmlns="http://www.w3.org/2000/svg">
<g clip-path="url(#clip0_1583_1948)">
<path d="M113.849 79.6641V105.159H274.75V79.6641H113.849ZM157.956 97.6647H156.246V87.1584H157.956V97.6647ZM169.93 97.6647H168.341L163.498 91.0035C163.417 90.8806 163.316 90.7264 163.193 90.5369C163.07 90.3474 162.979 90.2036 162.919 90.0995H162.842V97.6647H161.192V87.1584H162.842L167.622 93.7425C167.682 93.8029 167.751 93.8904 167.828 94.0029C167.905 94.1154 167.977 94.2278 168.05 94.3403C168.121 94.4528 168.173 94.5444 168.202 94.6153H168.279V87.1584H169.928V97.6647H169.93ZM180.852 96.4941C180.476 96.969 179.958 97.3126 179.302 97.5272C178.645 97.7417 177.893 97.848 177.05 97.848C176.479 97.848 175.93 97.7896 175.4 97.6709C174.871 97.5543 174.403 97.3647 173.996 97.1043C173.589 96.844 173.269 96.5128 173.034 96.1087C172.799 95.7046 172.683 95.2235 172.683 94.6611C172.683 94.6007 172.685 94.5403 172.691 94.484C172.695 94.4278 172.7 94.3799 172.7 94.3382H174.409C174.409 94.3695 174.407 94.4153 174.401 94.4757C174.395 94.5361 174.393 94.5882 174.393 94.6278C174.393 95.0048 174.505 95.3276 174.729 95.5922C174.954 95.8588 175.265 96.0566 175.668 96.1899C176.071 96.3233 176.53 96.3899 177.05 96.3899C177.334 96.3899 177.609 96.3732 177.875 96.3358C178.138 96.3003 178.382 96.2441 178.6 96.167C178.818 96.09 179.009 95.9942 179.173 95.8754C179.335 95.7588 179.464 95.6171 179.555 95.4547C179.647 95.2922 179.692 95.1027 179.692 94.8881C179.692 94.5611 179.599 94.2903 179.41 94.0758C179.221 93.8612 178.967 93.6821 178.645 93.5405C178.325 93.3968 177.964 93.2697 177.561 93.1572C177.158 93.0447 176.744 92.9323 176.317 92.8198C175.889 92.7073 175.473 92.574 175.072 92.4219C174.669 92.2678 174.308 92.0824 173.988 91.8637C173.668 91.645 173.412 91.368 173.223 91.0368C173.034 90.7056 172.941 90.2994 172.941 89.8204C172.941 89.3413 173.038 88.9518 173.231 88.5956C173.425 88.2374 173.705 87.9395 174.071 87.7C174.436 87.4604 174.875 87.2792 175.384 87.1563C175.893 87.0334 176.468 86.973 177.11 86.973C177.661 86.973 178.18 87.0314 178.668 87.1501C179.156 87.2667 179.584 87.4479 179.952 87.6937C180.318 87.9395 180.607 88.2499 180.814 88.6269C181.022 89.0039 181.128 89.4538 181.128 89.9745V90.1578H179.433V89.9578C179.433 89.6308 179.335 89.3559 179.142 89.1309C178.949 88.906 178.679 88.7331 178.332 88.6102C177.985 88.4873 177.584 88.4269 177.125 88.4269C176.585 88.4269 176.132 88.4811 175.766 88.5873C175.4 88.6956 175.122 88.8435 174.933 89.031C174.744 89.2205 174.65 89.4475 174.65 89.7121C174.65 90.0078 174.748 90.2515 174.941 90.439C175.134 90.6285 175.392 90.7889 175.712 90.9222C176.032 91.0555 176.393 91.1743 176.796 91.2826C177.199 91.3909 177.611 91.5013 178.035 91.62C178.456 91.7367 178.87 91.8721 179.271 92.0262C179.674 92.1803 180.035 92.3678 180.355 92.5927C180.675 92.8177 180.933 93.0947 181.126 93.428C181.319 93.7592 181.417 94.1653 181.417 94.6444C181.417 95.4005 181.228 96.015 180.852 96.4899V96.4941ZM185.877 97.6647H184.167V87.1584H185.877V97.6647ZM190.863 94.7694C191.123 95.3318 191.509 95.7421 192.024 96.0025C192.538 96.2629 193.167 96.392 193.911 96.392C194.613 96.392 195.203 96.2899 195.683 96.0858C196.161 95.8817 196.528 95.5776 196.782 95.1756C197.037 94.7715 197.164 94.2695 197.164 93.6675V93.5155H193.637V92.0908H198.876V97.6647H197.64L197.472 96.4087C197.187 96.7461 196.861 97.0189 196.495 97.2272C196.127 97.4376 195.729 97.5918 195.296 97.6938C194.864 97.7959 194.389 97.8459 193.869 97.8459C192.209 97.8459 190.934 97.4064 190.042 96.5295C189.151 95.6526 188.707 94.2778 188.707 92.4095C188.707 91.1847 188.914 90.1703 189.332 89.3705C189.75 88.5685 190.356 87.9687 191.15 87.5708C191.943 87.173 192.911 86.973 194.052 86.973C194.733 86.973 195.367 87.0501 195.953 87.2022C196.539 87.3542 197.052 87.5875 197.497 87.8999C197.939 88.2124 198.28 88.6019 198.521 89.0705C198.76 89.5413 198.88 90.0974 198.88 90.7389H197.139C197.139 90.3411 197.06 89.9953 196.902 89.7058C196.744 89.4142 196.526 89.1726 196.246 88.9789C195.965 88.7852 195.639 88.6456 195.267 88.5581C194.895 88.4706 194.501 88.429 194.083 88.429C193.504 88.429 192.986 88.5061 192.533 88.6581C192.081 88.8122 191.7 89.0455 191.395 89.3621C191.09 89.6787 190.861 90.0766 190.707 90.5577C190.556 91.0368 190.479 91.6034 190.479 92.2574V92.5782C190.479 93.4759 190.608 94.207 190.867 94.7673L190.863 94.7694ZM210.757 97.6647H209.047V93.0239H203.733V97.6647H202.023V87.1584H203.733V91.5534H209.047V87.1584H210.757V97.6647ZM221.77 88.6289H218.271V97.6647H216.562V88.6289H213.094V87.1584H221.77V88.6289ZM231.79 96.492C231.414 96.9669 230.896 97.3106 230.24 97.5251C229.583 97.7396 228.831 97.8459 227.988 97.8459C227.417 97.8459 226.868 97.7875 226.338 97.6688C225.809 97.5522 225.341 97.3626 224.934 97.1023C224.527 96.8419 224.207 96.5107 223.972 96.1066C223.737 95.7025 223.621 95.2214 223.621 94.659C223.621 94.5986 223.623 94.5382 223.629 94.482C223.633 94.4257 223.638 94.3778 223.638 94.3362H225.347C225.347 94.3674 225.345 94.4132 225.339 94.4736C225.333 94.534 225.331 94.5861 225.331 94.6257C225.331 95.0027 225.443 95.3255 225.667 95.5901C225.892 95.8567 226.203 96.0546 226.606 96.1879C227.009 96.3212 227.468 96.3878 227.988 96.3878C228.272 96.3878 228.547 96.3712 228.813 96.3337C229.076 96.2983 229.319 96.242 229.538 96.165C229.756 96.0879 229.947 95.9921 230.111 95.8733C230.273 95.7567 230.402 95.6151 230.493 95.4526C230.585 95.2901 230.63 95.1006 230.63 94.886C230.63 94.559 230.537 94.2882 230.348 94.0737C230.159 93.8592 229.905 93.68 229.583 93.5384C229.263 93.3947 228.902 93.2676 228.499 93.1551C228.096 93.0427 227.682 92.9302 227.254 92.8177C226.827 92.7052 226.411 92.5719 226.01 92.4199C225.607 92.2657 225.246 92.0803 224.926 91.8616C224.606 91.6429 224.35 91.3659 224.161 91.0347C223.972 90.7035 223.879 90.2974 223.879 89.8183C223.879 89.3392 223.976 88.9497 224.169 88.5935C224.363 88.2353 224.643 87.9374 225.009 87.6979C225.374 87.4583 225.813 87.2771 226.322 87.1542C226.831 87.0313 227.406 86.9709 228.048 86.9709C228.599 86.9709 229.118 87.0293 229.606 87.148C230.094 87.2646 230.522 87.4458 230.89 87.6916C231.256 87.9374 231.544 88.2478 231.752 88.6248C231.96 89.0018 232.066 89.4517 232.066 89.9724V90.1557H230.371V89.9558C230.371 89.6287 230.273 89.3538 230.08 89.1289C229.887 88.9039 229.617 88.731 229.27 88.6081C228.923 88.4852 228.522 88.4248 228.063 88.4248C227.522 88.4248 227.07 88.479 226.704 88.5852C226.338 88.6935 226.06 88.8414 225.871 89.0289C225.682 89.2184 225.588 89.4455 225.588 89.71C225.588 90.0058 225.686 90.2495 225.879 90.4369C226.072 90.6265 226.33 90.7869 226.65 90.9202C226.97 91.0535 227.331 91.1722 227.734 91.2805C228.137 91.3888 228.549 91.4992 228.973 91.6179C229.394 91.7346 229.808 91.87 230.209 92.0241C230.612 92.1782 230.973 92.3657 231.293 92.5907C231.613 92.8156 231.871 93.0926 232.064 93.4259C232.257 93.7571 232.355 94.1633 232.355 94.6423C232.355 95.3984 232.166 96.0129 231.79 96.4878V96.492Z" fill="#5E2E17"/>
<path d="M74.0438 42.8795C79.9439 41.4007 85.2207 38.8179 88.7732 34.527C91.6194 31.0902 93.3021 26.5911 93.3021 20.6964C93.3021 5.84523 82.7485 0.179688 64.2381 0.179688H33.3458V2.03349H33.7821C38.2487 2.1168 41.5727 3.69982 41.9882 11.0525V60.022C20.0914 58.2307 3.03524 44.9208 3.03524 28.8198C3.03524 17.5304 11.4491 7.59488 24.0179 2.05432V0.179688H0.75V28.8198C0.75 43.921 14.2121 56.6893 32.8057 61.0843H28.9415C25.9084 61.3134 22.8753 61.7508 20.0083 62.459C14.1083 63.9379 8.83143 66.5207 5.27893 70.8115C2.43277 74.2483 0.75 78.7474 0.75 84.6421C0.75 99.4933 11.3036 105.159 29.8141 105.159H60.7063V103.305H60.2701C55.8035 103.222 52.4795 101.639 52.064 94.286V45.3166C73.9607 47.1079 91.0169 60.4177 91.0169 76.5187C91.0169 87.8081 82.6031 97.7437 70.0342 103.284V105.159H93.3021V76.5187C93.3021 61.4175 79.84 48.6492 61.2465 44.2543H65.1106C68.1437 44.046 71.1769 43.5877 74.0438 42.8795ZM41.9882 93.5987C41.9882 101.139 38.7265 102.868 34.8 102.868H30.001C18.0347 102.868 10.8466 97.6395 10.8466 85.4128C10.8466 78.9765 12.841 74.2483 16.2273 70.8115C17.3284 69.6867 18.5956 68.6869 19.9875 67.8329C25.6591 64.3336 33.4289 62.9381 41.822 62.7089H41.9674V93.5987H41.9882ZM52.2094 42.6296H52.064V11.7399C52.064 4.19972 55.3256 2.4709 59.2521 2.4709H64.0511C76.0174 2.4709 83.2055 7.69903 83.2055 19.9258C83.2055 26.362 81.2111 31.0902 77.8248 34.527C76.7238 35.6518 75.4565 36.6516 74.0646 37.5056C68.3723 41.0049 60.5817 42.3796 52.2094 42.6296Z" fill="black"/>
<path d="M167.261 66.3129C165.287 70.7287 163.334 70.9369 157.974 70.9369H154.36C152.282 70.9369 151.264 69.8747 151.264 67.6876V57.2522H157.746C160.904 57.2522 161.61 57.8979 162.067 59.4601L162.109 59.6059H163.251V53.5237H162.15L162.109 53.6487C161.61 55.2109 160.883 55.8566 157.746 55.8566H151.264V45.2545C151.264 42.0677 152.76 41.6511 154.048 41.6511H156.853C162.399 41.6511 164.248 41.8594 166.18 46.2752L166.222 46.3793H167.344V40.2972H143.141V41.4428H143.328C145.426 41.4428 146.735 42.151 146.735 45.6711V66.9586C146.735 70.7911 145.115 71.1036 143.328 71.1036H142.456C140.066 71.0828 138.259 68.6666 136.161 65.8755C134.062 63.0843 131.715 59.96 128.287 58.8144C137.179 57.7937 139.09 52.9405 139.09 48.9621C139.09 43.0258 135.205 40.2764 126.874 40.2764H113.849V41.422H114.035C116.134 41.422 117.443 42.1302 117.443 45.6503V66.9377C117.443 70.4162 116.196 71.0828 114.035 71.0828H113.849V72.2284H125.628V71.0828H125.441C123.696 71.0828 121.971 70.7495 121.971 66.8961V59.2726C122.221 59.2726 122.491 59.2726 122.886 59.3143C126.355 59.7725 128.682 63.0219 130.925 66.1879C133.107 69.2498 135.164 72.145 138.114 72.2492C138.654 72.27 139.319 72.27 139.983 72.27C140.794 72.27 141.625 72.27 142.248 72.2492H168.403V66.2087H167.282L167.261 66.3129ZM121.971 57.9187V45.317C121.971 42.0885 123.467 41.6719 124.755 41.6719H126.729C131.86 41.6719 134.478 44.0465 134.478 48.7122C134.499 54.6485 130.406 57.6687 121.971 57.9187Z" fill="black"/>
<path d="M273.607 66.2081L273.566 66.3122C271.592 70.728 269.639 70.9363 264.279 70.9363H260.665C258.587 70.9363 257.569 69.874 257.569 67.687V57.2515H264.051C267.209 57.2515 267.915 57.8972 268.372 59.4594L268.414 59.6052H269.556V53.5231H268.455L268.414 53.6481C267.915 55.2103 267.188 55.856 264.051 55.856H257.569V45.2539C257.569 42.067 259.065 41.6505 260.353 41.6505H263.158C268.705 41.6505 270.554 41.8588 272.486 46.2745L272.527 46.3787H273.649V40.3799H239.911V41.5255H240.098C242.133 41.5255 243.193 42.3378 243.193 43.8584C243.193 44.3999 243.048 45.0248 242.757 45.8163L234.675 66.9996L226.469 46.1704C226.054 45.0665 225.846 44.2333 225.846 43.5667C225.846 41.8588 227.155 41.5047 228.277 41.5047H228.464V40.3799H194.601V41.5255H194.787C196.823 41.5255 197.883 42.3378 197.883 43.8584C197.883 44.3999 197.738 45.0248 197.447 45.8163L189.365 66.9996L181.159 46.1704C180.744 45.0665 180.536 44.2333 180.536 43.5667C180.536 41.8588 181.845 41.5047 182.967 41.5047H183.154V40.3799H171V41.5255H171.187C172.101 41.5255 174.241 41.5255 176.049 46.0663L186.561 72.3319H188.867L199.046 45.7746C199.815 43.8375 201.207 41.5047 203.596 41.5047H204.323C206.421 41.5047 207.834 42.2337 207.834 45.733V67.0413C207.834 70.4989 206.484 71.1863 204.323 71.1863H204.136V72.3319H216.019V71.1863H215.832C214.087 71.1863 212.363 70.8738 212.363 67.0413V45.7538C212.363 42.2962 213.693 41.5671 215.832 41.5255H216.56C217.474 41.5255 219.613 41.5255 221.421 46.0663L231.871 72.3527H234.177L244.356 45.7955C245.125 43.8584 246.517 41.5255 248.906 41.5255H249.633C251.731 41.5255 253.04 42.2337 253.04 45.7538V67.0413C253.04 70.8738 251.42 71.1863 249.633 71.1863H249.446V72.3319H274.75V66.2081H273.607Z" fill="black"/>
<path d="M167.261 26.1332C165.287 30.549 163.334 30.7573 157.974 30.7573H154.36C152.282 30.7573 151.264 29.695 151.264 27.5079V17.0725H157.746C160.904 17.0725 161.61 17.7182 162.067 19.2804L162.109 19.4262H163.251V13.3441H162.15L162.109 13.469C161.61 15.0312 160.883 15.6769 157.746 15.6769H151.264V5.07487C151.264 1.888 152.76 1.47142 154.048 1.47142H156.853C162.399 1.47142 164.248 1.67971 166.18 6.0955L166.222 6.19965H167.344V0.180009H143.141V1.32561H143.328C145.426 1.32561 146.735 2.03381 146.735 5.55394V26.8414C146.735 30.674 145.115 30.9864 143.328 30.9864H142.456C140.066 30.9656 138.259 28.5494 136.161 25.7583C134.062 22.9672 131.715 19.8428 128.287 18.6972C137.179 17.6765 139.09 12.8233 139.09 8.84496C139.09 2.90863 135.205 0.15918 126.874 0.15918H113.849V1.30479H114.035C116.134 1.30479 117.443 2.01298 117.443 5.53311V26.8414C117.443 30.299 116.196 30.9864 114.035 30.9864H113.849V32.132H125.628V30.9864H125.441C123.696 30.9864 121.971 30.6531 121.971 26.7997V19.1762C122.221 19.1762 122.491 19.1762 122.886 19.2179C126.355 19.6761 128.682 22.9255 130.925 26.0915C133.107 29.1534 135.164 32.0487 138.114 32.1528C138.654 32.1737 139.319 32.1737 139.983 32.1737C140.794 32.1737 141.625 32.1737 142.248 32.1528H168.403V26.029H167.282L167.261 26.1332ZM121.971 17.739V5.13736C121.971 1.90883 123.467 1.49225 124.755 1.49225H126.729C131.86 1.49225 134.478 3.86678 134.478 8.53252C134.499 14.4688 130.406 17.4891 121.971 17.739Z" fill="black"/>
<path d="M172.267 5.32482C173.971 1.888 175.903 1.55474 180.91 1.55474V26.9039C180.91 30.3199 179.601 31.0072 177.503 31.0072H177.316V32.1528H200.459V31.0072H200.272C198.589 31.0072 197.675 30.3407 197.675 29.1118C197.675 28.4661 197.862 27.7162 198.195 26.883L198.859 25.1542H213.464L214.087 26.9247C214.357 27.7995 214.524 28.4452 214.524 28.9868C214.524 30.2157 213.547 31.0072 212.051 31.0072H211.864V32.1528H265.734V26.029H264.57L264.529 26.154C262.742 30.3199 260.997 30.7781 254.889 30.7781H251.15C248.657 30.7781 248.137 29.0701 248.137 27.6329V5.51228C248.137 2.03381 249.529 1.32561 251.607 1.32561H251.794V0.180009H240.014V1.32561H240.201C242.3 1.32561 243.608 2.03381 243.608 5.55394V26.5289C243.608 30.2782 242.403 30.9864 240.201 30.9864H236.42C234.675 30.9864 232.951 30.674 232.951 26.8414V5.55394C232.951 2.0963 234.28 1.36727 236.42 1.32561H236.607V0.180009H224.724V1.32561H224.911C227.009 1.32561 228.422 2.05464 228.422 5.55394V26.8414C228.422 30.299 227.072 30.9864 224.911 30.9864H223.727C222.75 30.9864 220.694 30.9864 218.762 25.7791L209.309 0.15918H207.024L196.865 26.0915C195.535 29.4242 193.749 30.9864 191.235 30.9864H188.867C186.789 30.9864 185.501 30.299 185.501 26.883V1.51308C190.445 1.51308 192.357 1.86717 194.164 5.34565L194.226 5.4498H195.348V0.180009H171.062V5.4498H172.226L172.267 5.32482ZM206.588 5.22067L213.049 23.7795H199.441L206.588 5.22067Z" fill="black"/>
</g>
<defs>
<clipPath id="clip0_1583_1948">
<rect width="274" height="105" fill="white" transform="translate(0.75 0.15918)"/>
</clipPath>
</defs>
</svg>
